<?xml version="1.0" encoding="UTF-8"?>
<svg xmlns="http://www.w3.org/2000/svg" xmlns:xlink="http://www.w3.org/1999/xlink" width="80px" height="80px" viewBox="0 0 80 80" version="1.1">
<g id="surface1">
<path style=" stroke:none;fill-rule:nonzero;fill:rgb(0%,0%,0%);fill-opacity:1;" d="M 65.386719 0 L 14.613281 0 C 6.554688 0 0 6.554688 0 14.613281 L 0 65.386719 C 0 73.445312 6.554688 80 14.613281 80 L 65.386719 80 C 73.445312 80 80 73.445312 80 65.386719 L 80 14.613281 C 80 6.554688 73.445312 0 65.386719 0 Z M 74.9375 65.386719 C 74.9375 70.652344 70.652344 74.9375 65.386719 74.9375 L 14.613281 74.9375 C 9.347656 74.9375 5.0625 70.652344 5.0625 65.386719 L 5.0625 14.613281 C 5.0625 9.347656 9.347656 5.0625 14.613281 5.0625 L 65.386719 5.0625 C 70.652344 5.0625 74.9375 9.347656 74.9375 14.613281 Z M 74.9375 65.386719 "/>
<path style=" stroke:none;fill-rule:nonzero;fill:rgb(0%,0%,0%);fill-opacity:1;" d="M 40 16.183594 C 33.160156 16.183594 27.59375 21.75 27.59375 28.589844 C 27.59375 29.988281 28.726562 31.121094 30.125 31.121094 C 31.523438 31.121094 32.65625 29.988281 32.65625 28.589844 C 32.65625 24.542969 35.953125 21.246094 40 21.246094 C 44.046875 21.246094 47.34375 24.542969 47.34375 28.589844 C 47.34375 30.917969 45.660156 32.476562 42.882812 34.761719 C 40.347656 36.855469 37.46875 39.226562 37.46875 43 L 37.46875 51.121094 C 37.46875 52.519531 38.601562 53.652344 40 53.652344 C 41.398438 53.652344 42.53125 52.519531 42.53125 51.121094 L 42.53125 43 C 42.53125 41.613281 44.1875 40.25 46.105469 38.667969 C 48.914062 36.355469 52.40625 33.472656 52.40625 28.589844 C 52.40625 21.75 46.839844 16.183594 40 16.183594 Z M 40 16.183594 "/>
<path style=" stroke:none;fill-rule:nonzero;fill:rgb(0%,0%,0%);fill-opacity:1;" d="M 40 57.320312 C 38.210938 57.320312 36.753906 58.777344 36.753906 60.570312 C 36.753906 62.359375 38.210938 63.816406 40 63.816406 C 41.789062 63.816406 43.246094 62.359375 43.246094 60.570312 C 43.246094 58.777344 41.789062 57.320312 40 57.320312 Z M 40 57.320312 "/>
</g>
</svg>
